<svg width="160" height="86" viewBox="0 0 160 86" fill="none" xmlns="http://www.w3.org/2000/svg">
<path d="M133.337 83.0368C137.908 83.0368 141.613 79.3603 141.613 74.825C141.613 70.2898 137.908 66.6133 133.337 66.6133C128.766 66.6133 125.061 70.2898 125.061 74.825C125.061 79.3603 128.766 83.0368 133.337 83.0368Z" fill="#2295DA"/>
<path d="M34.4122 85.2827C40.2328 85.2827 44.9514 80.6011 44.9514 74.8259C44.9514 69.0508 40.2328 64.3691 34.4122 64.3691C28.5916 64.3691 23.873 69.0508 23.873 74.8259C23.873 80.6011 28.5916 85.2827 34.4122 85.2827Z" fill="#FF9932"/>
<path d="M107.998 86.0008C114.218 86.0008 119.261 80.9975 119.261 74.8256C119.261 68.6537 114.218 63.6504 107.998 63.6504C101.777 63.6504 96.7344 68.6537 96.7344 74.8256C96.7344 80.9975 101.777 86.0008 107.998 86.0008Z" fill="#09BC97"/>
<path d="M58.4295 82.4421C62.6696 82.4421 66.107 79.0316 66.107 74.8246C66.107 70.6175 62.6696 67.207 58.4295 67.207C54.1893 67.207 50.752 70.6175 50.752 74.8246C50.752 79.0316 54.1893 82.4421 58.4295 82.4421Z" fill="#DF5B5D"/>
<path d="M10.0478 82.7886C14.4796 82.7886 18.0723 79.224 18.0723 74.8269C18.0723 70.4298 14.4796 66.8652 10.0478 66.8652C5.61609 66.8652 2.02344 70.4298 2.02344 74.8269C2.02344 79.224 5.61609 82.7886 10.0478 82.7886Z" fill="#E3B519"/>
<path d="M81.4192 84.2638C86.673 84.2638 90.9321 80.038 90.9321 74.8253C90.9321 69.6125 86.673 65.3867 81.4192 65.3867C76.1653 65.3867 71.9062 69.6125 71.9062 74.8253C71.9062 80.038 76.1653 84.2638 81.4192 84.2638Z" fill="#8FBA22"/>
<path d="M153.707 81.0697C157.183 81.0697 160 78.2742 160 74.8259C160 71.3775 157.183 68.582 153.707 68.582C150.232 68.582 147.414 71.3775 147.414 74.8259C147.414 78.2742 150.232 81.0697 153.707 81.0697Z" fill="#8D59B0"/>
<path d="M32.2943 40.1757C32.2943 44.682 30.6727 48.2176 27.4294 50.7827C24.1862 53.3478 19.7124 54.6304 14.008 54.6304C11.1297 54.6304 7.7552 54.1207 3.88439 53.1014C1.59588 52.4989 0 50.4211 0 48.0443C0 46.5606 1.1972 45.3578 2.67403 45.3578C2.98308 45.3578 3.28979 45.4116 3.58054 45.5169C5.07539 46.058 6.32579 46.4499 7.33177 46.6924C9.91947 47.3164 12.3289 47.6283 14.56 47.6283C17.8263 47.6283 20.2357 47.0044 21.7883 45.7565C23.3409 44.5086 24.1172 42.8332 24.1172 40.7303C24.1172 38.8354 23.4042 37.2293 21.9781 35.9121C20.552 34.5949 17.6078 33.0351 13.1454 31.2325C8.54508 29.3607 5.30189 27.2232 3.41574 24.8198C1.5296 22.4165 0.586542 19.5279 0.586542 16.154C0.586542 11.925 2.08163 8.59736 5.07186 6.17091C8.06209 3.74446 12.0758 2.53125 17.1132 2.53125C19.7167 2.53125 23.3575 3.22606 28.0358 4.61569C29.8238 5.14679 30.8447 7.03359 30.3161 8.82995C30.2892 8.92121 30.2585 9.0113 30.2241 9.09997C29.4955 10.9781 27.4533 11.9792 25.5314 11.4003C21.6291 10.225 18.754 9.63725 16.9062 9.63725C14.238 9.63725 12.2139 10.2207 10.8338 11.3878C9.45366 12.5548 8.76362 14.0973 8.76362 16.0153C8.76362 17.3325 9.03964 18.4591 9.59168 19.395C10.1437 20.3309 11.0523 21.2148 12.3174 22.0467C13.5825 22.8787 15.8596 23.9763 19.1489 25.3398C22.8521 26.8881 25.5663 28.3324 27.2914 29.6727C29.0166 31.013 30.2816 32.5266 31.0867 34.2136C31.8918 35.9006 32.2943 37.8879 32.2943 40.1757Z" fill="#0F355C"/>
<path d="M53.574 48.0444C54.3523 48.0444 55.3601 47.9358 56.5976 47.7185L56.5976 47.7185C57.9486 47.4813 59.2353 48.3893 59.4714 49.7467C59.496 49.8885 59.5085 50.0322 59.5085 50.1762C59.5085 52.1255 58.1418 53.8051 56.2403 54.1928C56.1728 54.2065 56.1064 54.2195 56.041 54.2318C54.6264 54.4976 53.16 54.6305 51.6419 54.6305C43.9593 54.6305 40.1181 50.5633 40.1181 42.4289V21.7696H36.7023C35.7115 21.7696 34.9082 20.9625 34.9082 19.9671C34.9082 18.8579 35.5178 17.8394 36.4929 17.3194L40.4976 15.1835L42.4486 9.45023C42.9326 8.02797 44.2631 7.07227 45.7592 7.07227C47.1407 7.07227 48.2607 8.19742 48.2607 9.58536V15.5995H56.0582C57.7541 15.5995 59.1289 16.9807 59.1289 18.6845C59.1289 20.3883 57.7541 21.7696 56.0582 21.7696H48.2607V42.2903C48.2607 44.2546 48.7494 45.7046 49.727 46.6405C50.7046 47.5765 51.9869 48.0444 53.574 48.0444Z" fill="#0F355C"/>
<path d="M91.4999 50.809L91.0695 48.9092H90.6555C89.5284 50.6886 87.9241 52.0867 85.8424 53.1035C83.7608 54.1203 81.3859 54.6287 78.7177 54.6287C74.0943 54.6287 70.6441 53.4732 68.3669 51.1623C66.0897 48.8514 64.9512 45.3504 64.9512 40.6593V19.7053C64.9512 17.4367 66.7817 15.5977 69.0397 15.5977C71.2978 15.5977 73.1283 17.4367 73.1283 19.7053V39.2381C73.1283 42.173 73.7263 44.3741 74.9224 45.8415C76.1185 47.3089 77.9931 48.0426 80.5463 48.0426C83.9506 48.0426 86.452 47.0201 88.0506 44.9749C89.6492 42.9297 90.4485 39.5039 90.4485 34.6972V19.6879C90.4485 17.4289 92.2713 15.5977 94.5198 15.5977C96.7683 15.5977 98.5911 17.4289 98.5911 19.6879V50.729C98.5911 52.4999 97.1622 53.9354 95.3996 53.9354C93.5327 53.9354 91.9142 52.6378 91.4999 50.809Z" fill="#0F355C"/>
<path fill-rule="evenodd" clip-rule="evenodd" d="M110.037 49.43C112.706 52.8964 116.42 54.6295 121.182 54.6295C126.196 54.6295 130.003 52.7231 132.602 48.9101H132.982L133.532 50.8675C134.043 52.6829 135.693 53.9363 137.571 53.9363C139.324 53.9363 140.745 52.5085 140.745 50.7472V4.09028C140.745 1.83128 138.922 0 136.673 0C134.425 0 132.602 1.83128 132.602 4.09028V13.9694C132.602 15.5639 132.798 17.7361 133.189 20.4861H132.774C130.152 16.7655 126.334 14.9053 121.32 14.9053C116.535 14.9053 112.792 16.6557 110.089 20.1568C107.386 23.6578 106.035 28.5511 106.035 34.8367C106.035 41.0993 107.369 45.9636 110.037 49.43ZM130.635 45.2188C129.117 47.1022 126.691 48.0438 123.355 48.0438C120.365 48.0438 118.122 46.9288 116.627 44.6988C115.132 42.4688 114.385 39.2278 114.385 34.9757C114.385 30.6774 115.155 27.3671 116.697 25.0446C118.237 22.7222 120.434 21.561 123.286 21.561C126.622 21.561 129.071 22.5778 130.635 24.6113C132.199 26.645 132.982 30.0766 132.982 34.9064V36.0503C132.935 40.2793 132.153 43.3354 130.635 45.2188Z" fill="#0F355C"/>
<path d="M154.554 53.9354C152.315 53.9354 150.5 52.1119 150.5 49.8624V19.6706C150.5 17.4212 152.315 15.5977 154.554 15.5977C156.793 15.5977 158.608 17.4212 158.608 19.6706V49.8624C158.608 52.1119 156.793 53.9354 154.554 53.9354Z" fill="#0F355C"/>
<path d="M154.554 10.4744C151.795 10.4744 149.559 8.22734 149.559 5.45548V5.12826C149.559 2.35641 151.795 0.109375 154.554 0.109375C157.313 0.109375 159.55 2.35641 159.55 5.12826V5.45548C159.55 8.22734 157.313 10.4744 154.554 10.4744Z" fill="#0F355C"/>
</svg>
